<svg id="Layer_1" data-name="Layer 1" xmlns="http://www.w3.org/2000/svg" viewBox="0 0 276.01 154.08"><defs><style>.cls-1,.cls-3{fill:#403e66;}.cls-1{stroke:#403e66;stroke-miterlimit:10;}.cls-2{fill:#1ab1dc;}</style></defs><path class="cls-1" d="M41.69,126.74l-8.93,26.72h-4l-7.28-21.34-7.29,21.34H10.09L1.16,126.74H5.09l7.22,21.72,7.51-21.72h3.52l7.36,21.83,7.37-21.83Z"/><path class="cls-1" d="M65.74,150.14v3.32H46.35V126.74H65.2v3.32h-15v8.21h13.4v3.24H50.16v8.63Z"/><path class="cls-1" d="M94.89,146.24c0,4.58-3.47,7.22-10.23,7.22H71.92V126.74h12c6.15,0,9.58,2.6,9.58,6.91a6.33,6.33,0,0,1-3.59,5.95A6.45,6.45,0,0,1,94.89,146.24ZM75.73,129.83v8.55h7.83c3.89,0,6.1-1.45,6.1-4.27s-2.21-4.28-6.1-4.28ZM91,145.94c0-3.09-2.29-4.47-6.53-4.47H75.73v8.89h8.78C88.75,150.36,91,149,91,145.94Z"/><path class="cls-2" d="M98.63,140.1c0-7.82,6-13.66,14.24-13.66S127,132.24,127,140.1s-6,13.66-14.15,13.66S98.63,147.92,98.63,140.1Zm24.58,0a10.38,10.38,0,1,0-10.34,10.26A10,10,0,0,0,123.21,140.1Z"/><path class="cls-2" d="M155.84,126.74v26.72H152V141.55H136.68v11.91h-3.82V126.74h3.82v11.49H152V126.74Z"/><path class="cls-2" d="M161.68,140.1c0-7.82,6-13.66,14.23-13.66s14.16,5.8,14.16,13.66-6,13.66-14.16,13.66S161.68,147.92,161.68,140.1Zm24.57,0a10.38,10.38,0,1,0-10.34,10.26A10,10,0,0,0,186.25,140.1Z"/><path class="cls-2" d="M195.91,126.74h3.81v23.4h14.47v3.32H195.91Z"/><path class="cls-2" d="M218.58,126.74h3.81v26.72h-3.81Z"/><path class="cls-2" d="M228.23,140.1c0-7.9,6-13.66,14.16-13.66a13.19,13.19,0,0,1,10.15,4.16l-2.48,2.4a9.92,9.92,0,0,0-7.52-3.17,10.27,10.27,0,1,0,0,20.53,10,10,0,0,0,7.52-3.2l2.48,2.4a13.25,13.25,0,0,1-10.19,4.2C234.26,153.76,228.23,148,228.23,140.1Z"/><path class="cls-2" d="M255.44,150.4l1.42-3a13.75,13.75,0,0,0,8.81,3.09c4.62,0,6.6-1.8,6.6-4.12,0-6.53-16.18-2.41-16.18-12.33,0-4.12,3.21-7.63,10.23-7.63a15.79,15.79,0,0,1,8.59,2.36l-1.26,3.06a13.79,13.79,0,0,0-7.33-2.18c-4.54,0-6.49,1.91-6.49,4.24,0,6.52,16.18,2.44,16.18,12.25,0,4.08-3.28,7.59-10.34,7.59C261.59,153.76,257.58,152.39,255.44,150.4Z"/><circle class="cls-3" cx="62.3" cy="11.5" r="11.19"/><circle class="cls-3" cx="93.29" cy="63.93" r="11.19"/><rect class="cls-3" x="66.6" y="7.27" width="22.38" height="60.9" transform="translate(-8.37 44.84) rotate(-30.59)"/><circle class="cls-2" cx="124.28" cy="11.5" r="11.19"/><circle class="cls-2" cx="93.29" cy="63.93" r="11.19"/><rect class="cls-2" x="78.34" y="26.53" width="60.9" height="22.38" transform="translate(20.96 112.17) rotate(-59.41)"/><circle class="cls-3" cx="124.28" cy="11.5" r="11.19"/><circle class="cls-3" cx="155.27" cy="63.93" r="11.19"/><rect class="cls-3" x="128.59" y="7.27" width="22.38" height="60.9" transform="translate(0.26 76.38) rotate(-30.59)"/><path class="cls-2" d="M159.11,48.09c8.2-14.06,16.35-28.16,24.64-42.17C187.23.05,193.08-1.4,197,2.48c3.24,3.24,3,6.88.81,10.67q-26.31,45.45-52.58,90.93c-2.72,4.71-6.7,6.82-11.55,3.94s-4.65-7.31-1.89-12c4.94-8.37,9.62-16.9,14.4-25.36Q152.62,59.37,159.11,48.09Z"/><path class="cls-2" d="M184.61,48.09C192.82,34,201,19.93,209.26,5.92c3.47-5.87,9.32-7.32,13.2-3.44,3.24,3.24,3,6.88.81,10.67q-26.33,45.45-52.58,90.93C168,108.79,164,110.9,159.13,108s-4.65-7.31-1.88-12c4.93-8.37,9.61-16.9,14.39-25.36Q178.14,59.37,184.61,48.09Z"/></svg>